<svg width="139.40" height="139.40"
     xmlns="http://www.w3.org/2000/svg"
     xmlns:xlink="http://www.w3.org/1999/xlink">
<line x1="20.75" y1="119.39" x2="27.01" y2="122.01" style="fill:none;stroke:black;stroke-width:3px" />
<line x1="20.01" y1="118.65" x2="20.75" y2="119.39" style="fill:none;stroke:black;stroke-width:3px" />
<line x1="17.40" y1="112.39" x2="20.01" y2="118.65" style="fill:none;stroke:black;stroke-width:3px" />
<line x1="37.60" y1="126.39" x2="41.01" y2="127.81" style="fill:none;stroke:black;stroke-width:3px" />
<line x1="54.50" y1="133.39" x2="55.01" y2="133.61" style="fill:none;stroke:black;stroke-width:3px" />
<line x1="48.01" y1="130.71" x2="54.50" y2="133.39" style="fill:none;stroke:black;stroke-width:3px" />
<line x1="41.01" y1="127.81" x2="48.01" y2="130.71" style="fill:none;stroke:black;stroke-width:3px" />
<line x1="27.01" y1="122.01" x2="34.01" y2="124.91" style="fill:none;stroke:black;stroke-width:3px" />
<line x1="34.01" y1="124.91" x2="37.60" y2="126.39" style="fill:none;stroke:black;stroke-width:3px" />
<line x1="11.60" y1="98.39" x2="13.01" y2="101.80" style="fill:none;stroke:black;stroke-width:3px" />
<line x1="14.50" y1="105.39" x2="17.40" y2="112.39" style="fill:none;stroke:black;stroke-width:3px" />
<line x1="13.01" y1="101.80" x2="14.50" y2="105.39" style="fill:none;stroke:black;stroke-width:3px" />
<line x1="8.70" y1="91.39" x2="11.60" y2="98.39" style="fill:none;stroke:black;stroke-width:3px" />
<line x1="6.01" y1="84.90" x2="8.70" y2="91.39" style="fill:none;stroke:black;stroke-width:3px" />
<line x1="5.80" y1="84.39" x2="6.01" y2="84.90" style="fill:none;stroke:black;stroke-width:3px" />
<line x1="55.01" y1="133.61" x2="62.01" y2="136.51" style="fill:none;stroke:black;stroke-width:3px" />
<line x1="62.01" y1="136.51" x2="69.01" y2="139.40" style="fill:none;stroke:black;stroke-width:3px" />
<line x1="69.01" y1="139.40" x2="76.01" y2="137.09" style="fill:none;stroke:black;stroke-width:3px" />
<line x1="76.01" y1="137.09" x2="83.01" y2="134.19" style="fill:none;stroke:black;stroke-width:3px" />
<line x1="83.01" y1="134.19" x2="84.92" y2="133.39" style="fill:none;stroke:black;stroke-width:3px" />
<line x1="90.01" y1="131.29" x2="97.01" y2="128.39" style="fill:none;stroke:black;stroke-width:3px" />
<line x1="90.01" y1="131.29" x2="84.92" y2="133.39" style="fill:none;stroke:black;stroke-width:3px" />
<line x1="97.01" y1="128.39" x2="101.82" y2="126.39" style="fill:none;stroke:black;stroke-width:3px" />
<line x1="104.01" y1="125.49" x2="101.82" y2="126.39" style="fill:none;stroke:black;stroke-width:3px" />
<line x1="104.01" y1="125.49" x2="111.01" y2="122.59" style="fill:none;stroke:black;stroke-width:3px" />
<line x1="2.90" y1="77.39" x2="5.80" y2="84.39" style="fill:none;stroke:black;stroke-width:3px" />
<line x1="0.00" y1="70.39" x2="2.90" y2="77.39" style="fill:none;stroke:black;stroke-width:3px" />
<line x1="2.32" y1="63.39" x2="0.00" y2="70.39" style="fill:none;stroke:black;stroke-width:3px" />
<line x1="5.22" y1="56.39" x2="2.32" y2="63.39" style="fill:none;stroke:black;stroke-width:3px" />
<line x1="6.01" y1="54.49" x2="5.22" y2="56.39" style="fill:none;stroke:black;stroke-width:3px" />
<line x1="6.01" y1="54.49" x2="8.12" y2="49.39" style="fill:none;stroke:black;stroke-width:3px" />
<line x1="11.02" y1="42.39" x2="8.12" y2="49.39" style="fill:none;stroke:black;stroke-width:3px" />
<line x1="13.01" y1="37.59" x2="13.92" y2="35.39" style="fill:none;stroke:black;stroke-width:3px" />
<line x1="16.82" y1="28.39" x2="13.92" y2="35.39" style="fill:none;stroke:black;stroke-width:3px" />
<line x1="13.01" y1="37.59" x2="11.02" y2="42.39" style="fill:none;stroke:black;stroke-width:3px" />
<line x1="111.01" y1="122.59" x2="118.01" y2="119.69" style="fill:none;stroke:black;stroke-width:3px" />
<line x1="118.01" y1="119.69" x2="118.34" y2="119.39" style="fill:none;stroke:black;stroke-width:3px" />
<line x1="122.02" y1="112.39" x2="118.34" y2="119.39" style="fill:none;stroke:black;stroke-width:3px" />
<line x1="124.92" y1="105.39" x2="122.02" y2="112.39" style="fill:none;stroke:black;stroke-width:3px" />
<line x1="125.01" y1="105.18" x2="124.92" y2="105.39" style="fill:none;stroke:black;stroke-width:3px" />
<line x1="125.01" y1="105.18" x2="127.82" y2="98.39" style="fill:none;stroke:black;stroke-width:3px" />
<line x1="130.72" y1="91.39" x2="127.82" y2="98.39" style="fill:none;stroke:black;stroke-width:3px" />
<line x1="132.01" y1="88.28" x2="133.62" y2="84.39" style="fill:none;stroke:black;stroke-width:3px" />
<line x1="132.01" y1="88.28" x2="130.72" y2="91.39" style="fill:none;stroke:black;stroke-width:3px" />
<line x1="136.52" y1="77.39" x2="133.62" y2="84.39" style="fill:none;stroke:black;stroke-width:3px" />
<line x1="139.01" y1="71.38" x2="136.52" y2="77.39" style="fill:none;stroke:black;stroke-width:3px" />
<line x1="137.10" y1="63.39" x2="139.01" y2="69.16" style="fill:none;stroke:black;stroke-width:3px" />
<line x1="134.20" y1="56.39" x2="137.10" y2="63.39" style="fill:none;stroke:black;stroke-width:3px" />
<line x1="139.01" y1="71.38" x2="139.40" y2="70.39" style="fill:none;stroke:black;stroke-width:3px" />
<line x1="139.01" y1="69.16" x2="139.40" y2="70.39" style="fill:none;stroke:black;stroke-width:3px" />
<line x1="131.30" y1="49.39" x2="132.01" y2="51.11" style="fill:none;stroke:black;stroke-width:3px" />
<line x1="132.01" y1="51.11" x2="134.20" y2="56.39" style="fill:none;stroke:black;stroke-width:3px" />
<line x1="128.40" y1="42.39" x2="131.30" y2="49.39" style="fill:none;stroke:black;stroke-width:3px" />
<line x1="125.50" y1="35.39" x2="128.40" y2="42.39" style="fill:none;stroke:black;stroke-width:3px" />
<line x1="125.01" y1="34.21" x2="125.50" y2="35.39" style="fill:none;stroke:black;stroke-width:3px" />
<line x1="122.60" y1="28.39" x2="125.01" y2="34.21" style="fill:none;stroke:black;stroke-width:3px" />
<line x1="119.70" y1="21.39" x2="122.60" y2="28.39" style="fill:none;stroke:black;stroke-width:3px" />
<line x1="118.01" y1="19.70" x2="119.70" y2="21.39" style="fill:none;stroke:black;stroke-width:3px" />
<line x1="111.01" y1="16.80" x2="118.01" y2="19.70" style="fill:none;stroke:black;stroke-width:3px" />
<line x1="19.72" y1="21.39" x2="16.82" y2="28.39" style="fill:none;stroke:black;stroke-width:3px" />
<line x1="20.01" y1="21.06" x2="27.01" y2="17.38" style="fill:none;stroke:black;stroke-width:3px" />
<line x1="20.01" y1="21.06" x2="19.72" y2="21.39" style="fill:none;stroke:black;stroke-width:3px" />
<line x1="34.01" y1="14.48" x2="34.22" y2="14.39" style="fill:none;stroke:black;stroke-width:3px" />
<line x1="27.01" y1="17.38" x2="34.01" y2="14.48" style="fill:none;stroke:black;stroke-width:3px" />
<line x1="41.01" y1="11.58" x2="48.01" y2="8.68" style="fill:none;stroke:black;stroke-width:3px" />
<line x1="48.01" y1="8.68" x2="51.12" y2="7.39" style="fill:none;stroke:black;stroke-width:3px" />
<line x1="55.01" y1="5.78" x2="51.12" y2="7.39" style="fill:none;stroke:black;stroke-width:3px" />
<line x1="41.01" y1="11.58" x2="34.22" y2="14.39" style="fill:none;stroke:black;stroke-width:3px" />
<line x1="76.01" y1="2.30" x2="83.01" y2="5.20" style="fill:none;stroke:black;stroke-width:3px" />
<line x1="70.25" y1="0.39" x2="76.01" y2="2.30" style="fill:none;stroke:black;stroke-width:3px" />
<line x1="62.01" y1="2.88" x2="68.02" y2="0.39" style="fill:none;stroke:black;stroke-width:3px" />
<line x1="55.01" y1="5.78" x2="62.01" y2="2.88" style="fill:none;stroke:black;stroke-width:3px" />
<line x1="105.20" y1="14.39" x2="111.01" y2="16.80" style="fill:none;stroke:black;stroke-width:3px" />
<line x1="97.01" y1="11.00" x2="104.01" y2="13.90" style="fill:none;stroke:black;stroke-width:3px" />
<line x1="104.01" y1="13.90" x2="105.20" y2="14.39" style="fill:none;stroke:black;stroke-width:3px" />
<line x1="88.30" y1="7.39" x2="90.01" y2="8.10" style="fill:none;stroke:black;stroke-width:3px" />
<line x1="90.01" y1="8.10" x2="97.01" y2="11.00" style="fill:none;stroke:black;stroke-width:3px" />
<line x1="83.01" y1="5.20" x2="88.30" y2="7.39" style="fill:none;stroke:black;stroke-width:3px" />
<line x1="69.01" y1="0.00" x2="68.02" y2="0.39" style="fill:none;stroke:black;stroke-width:3px" />
<line x1="69.01" y1="0.00" x2="70.25" y2="0.39" style="fill:none;stroke:black;stroke-width:3px" />
</svg>